# Blender v2.77 (sub 0) OBJ File: ''
# www.blender.org
mtllib World Map Arrow.mtl
o MODELS_bin_025:poly000
v 0.355469 3.218750 -0.191405
v 0.355469 3.218750 0.191407
v -0.355469 3.218750 -0.191405
v -0.355469 3.218750 0.191407
v 0.355469 1.542969 -0.191406
v -0.355469 1.542969 -0.191406
v 1.027344 1.679688 -0.191406
v 0.000000 0.000000 -0.191406
v -1.027344 1.679688 -0.191406
v -1.027344 1.679688 0.191406
v -0.355469 1.542969 0.191406
v 0.000000 -0.000000 0.191406
v 0.355469 1.542969 0.191406
v 1.027344 1.679688 0.191406
vt 0.9307 0.1582
vt 0.9307 0.0322
vt 0.0469 0.1582
vt 0.0469 0.0322
vt 0.3633 0.0322
vt 0.3633 0.1582
vt 0.9297 0.0322
vt 0.9297 0.1582
vt 0.9668 0.1992
vt 0.4961 0.9736
vt 0.6602 0.2617
vt 0.3320 0.2617
vt 0.0264 0.1992
vt 0.0264 0.1992
vt 0.4961 0.9736
vt 0.3320 0.2617
vt 0.6602 0.2617
vt 0.9668 0.1992
vt 0.9297 0.0322
vt 0.3633 0.0322
vt 0.9297 0.1592
vt 0.3633 0.1592
vt 0.9297 0.0322
vt 0.0469 0.0322
vt 0.9297 0.1592
vt 0.0469 0.1592
vt 0.9297 0.0322
vt 0.0469 0.0322
vt 0.9297 0.1592
vt 0.0469 0.1592
vt 0.9297 0.0322
vt 0.0469 0.0322
vt 0.9297 0.1592
vt 0.0469 0.1592
vt 0.9297 0.0322
vt 0.0469 0.0322
vt 0.9297 0.1592
vt 0.0469 0.1592
vt 0.9307 0.1582
vt 0.9307 0.0322
vt 0.0469 0.1582
vt 0.0469 0.0322
vt 0.9307 0.1582
vt 0.9307 0.0322
vt 0.0469 0.1582
vt 0.0469 0.0322
vn 0.0000 1.0000 0.0000
vn -0.0000 0.0000 -1.0000
vn -0.0000 -0.0000 1.0000
vn 1.0000 0.0000 0.0000
vn 0.8531 -0.5218 -0.0005
vn 0.8531 -0.5218 0.0005
vn -1.0000 0.0000 0.0000
vn -0.8531 -0.5218 0.0005
vn -0.8531 -0.5218 -0.0005
vn -0.1994 0.9799 0.0095
vn -0.1994 0.9799 -0.0095
vn 0.1994 0.9799 -0.0095
vn 0.1994 0.9799 0.0095
usemtl None
s 1
f 1/1/1 3/2/1 2/3/1
f 2/3/1 3/2/1 4/4/1
f 5/5/2 6/6/2 1/7/2
f 1/7/2 6/6/2 3/8/2
f 7/9/2 8/10/2 5/11/2
f 5/11/2 8/10/2 6/12/2
f 8/10/2 9/13/2 6/12/2
f 10/14/3 12/15/3 11/16/3
f 11/16/3 12/15/3 13/17/3
f 12/15/3 14/18/3 13/17/3
f 13/19/3 2/20/3 11/21/3
f 11/21/3 2/20/3 4/22/3
f 5/23/4 1/24/4 13/25/4
f 13/25/4 1/24/4 2/26/4
f 8/27/5 7/28/6 12/29/6
f 12/29/6 7/28/6 14/30/5
f 3/31/7 6/32/7 4/33/7
f 4/33/7 6/32/7 11/34/7
f 9/35/8 8/36/9 10/37/9
f 10/37/9 8/36/9 12/38/8
f 7/39/10 5/40/11 14/41/11
f 14/41/11 5/40/11 13/42/10
f 6/43/12 9/44/13 11/45/13
f 11/45/13 9/44/13 10/46/12
